<?xml version="1.0" encoding="utf-8"?>
<!-- Generator: Adobe Illustrator 16.0.0, SVG Export Plug-In . SVG Version: 6.00 Build 0)  -->
<!DOCTYPE svg PUBLIC "-//W3C//DTD SVG 1.1//EN" "http://www.w3.org/Graphics/SVG/1.1/DTD/svg11.dtd">
<svg version="1.1" id="Layer_1" xmlns="http://www.w3.org/2000/svg" xmlns:xlink="http://www.w3.org/1999/xlink" x="0px" y="0px"
	 width="56px" height="56px" viewBox="0 0 56 56" enable-background="new 0 0 56 56" xml:space="preserve">
<path fill="#FFFFFF" d="M31.289,33.021c0,9.613,5.533,9.68,12.355,9.68l8.395,7.631l-2.709-7.904c3.961-0.627,6.67-2.682,6.67-9.406
	c0-9.616-5.531-9.684-12.355-9.684C36.822,23.337,31.289,23.406,31.289,33.021z"/>
<path fill="#FFFFFF" d="M28.104,38.367c-0.885,0.006-1.792,0.006-2.725,0.006h-0.678l-8.858,5.932l1.865-6.014l-2.547-0.402
	C8.849,36.891,4.645,33.91,4.645,22.608c0-15.766,8.249-15.766,20.734-15.766c12.058,0,20.162,0.005,20.705,14.204
	c1.623,0.078,3.131,0.26,4.475,0.647C50.17,2.394,37.574,2.379,25.379,2.379c-12.388,0-25.198,0-25.198,20.229
	c0,10.984,3.656,17,11.773,19.164L7.843,55.033l18.215-12.195c1.913-0.002,3.831-0.014,5.704-0.105
	C30.129,41.893,28.871,40.529,28.104,38.367z"/>
</svg>
